{"title":"In Time 2011 TS XViD READNFO DTRG","uid":6783130,"size":915312052,"categoryP":"video","categoryS":"movies","magnet":"?xt=urn:btih:a99a06de1d960c386f961f5f942975e33e59714e&amp;dn=In+Time+2011+TS+XViD+READNFO+DTRG&amp;tr=udp%3A%2F%2Ftracker.openbittorrent.com%3A80&amp;tr=udp%3A%2F%2Fopen.demonii.com%3A1337&amp;tr=udp%3A%2F%2Ftracker.coppersurfer.tk%3A6969&amp;tr=udp%3A%2F%2Fexodus.desync.com%3A6969","seeders":0,"leechers":0,"uploader":"SAFCukO09","files":5,"time":1319986082,"description":"Format : AVI\nFormat/Info : Audio Video Interleave\nFile size : 868 MiB\nDuration : 1h 41mn\nOverall bit rate : 1 193 Kbps\nWriting library : VirtualDub build 32842/release\n\nVideo\nID : 0\nFormat : MPEG-4 Visual\nFormat profile : Advanced Simple@L5\nFormat settings, BVOP : 2\nFormat settings, QPel : No\nFormat settings, GMC : No warppoints\nFormat settings, Matrix : Default (H.263)\nMuxing mode : Packed bitstream\nCodec ID : XVID\nCodec ID/Hint : XviD\nDuration : 1h 41mn\nBit rate : 1 055 Kbps\nWidth : 642 pixels\nHeight : 272 pixels\nDisplay aspect ratio : 2.35:1\nFrame rate : 25.000 fps\nColor space : YUV\nChroma subsampling : 4:2:0\nBit depth : 8 bits\nScan type : Progressive\nCompression mode : Lossy\nBits/(Pixel*Frame) : 0.242\nStream size : 768 MiB (88%)\nWriting library : XviD 64\n\nAudio\nID : 1\nFormat : MPEG Audio\nFormat version : Version 1\nFormat profile : Layer 3\nMode : Joint stereo\nMode extension : MS Stereo\nCodec ID : 55\nCodec ID/Hint : MP3\nDuration : 1h 41mn\nBit rate mode : Constant\nBit rate : 128 Kbps\nChannel(s) : 2 channels\nSampling rate : 44.1 KHz\nCompression mode : Lossy\nStream size : 93.2 MiB (11%)\nAlignment : Split accross interleaves\nInterleave, duration : 40 ms (1.00 video frame)\nInterleave, preload duration : 500 ms\nWriting library : LAME3.98r\nEncoding settings : -m j -V 4 -q 2 -lowpass 17 -b 128\n\n\n\n\n\n\n\n\n &lt;a href=&quot;\nhttp://www.imdb.com/title/tt1637688/&quot; rel=&quot;nofollow&quot; target=&quot;_NEW&quot;&gt;\nhttp://www.imdb.com/title/tt1637688/&lt;/a&gt;\n\n\n\nRatings: 6.4/10 from 1,189 users Metascore: 55/100\nReviews: 34 user | 25 critic | 30 from Metacritic.com\n\nIn a future where people stop aging at 25, but are engineered to live only one more year, having the means to buy your way out of the situation is a shot at immortal youth. Here, Will Salas finds himself accused of murder and on the run with a hostage - a connection that becomes an important part of the way against the system.\nDirector:\nAndrew Niccol\nWriter:\nAndrew Niccol\nStars:\nJustin Timberlake, Amanda Seyfried and Cillian Murphy\n\n\n\n\n\n\n\n\n\n\n\n\n\n\n\n\n\nSource Used\n\n\nRELIZLAB/MISTERE ................Thanks\n\nAnother one ive kept the file size down on i actually went abit over what i wanted but hey it happens\n\nChanged the rgb,hue,levels,resized\n\nCheck out the sample included its got flaws this vid thats the reason for the readnfo ..........as mistere stated the vid and line aint the best ........but its free free free\n\nEnjoy\n\n\n\n\n\nGreetz to IMAGiNE,Flawl3ss,BDK,Ez,CreWsaDe,TaRiQ786,ETRG,BHRG,iLLUMiNATi,ViSUALiSE,MiSTERE\n","torrent":{"xt":"urn:btih:a99a06de1d960c386f961f5f942975e33e59714e","amp;dn":"In+Time+2011+TS+XViD+READNFO+DTRG","amp;tr":["udp%3A%2F%2Ftracker.openbittorrent.com%3A80","udp%3A%2F%2Fopen.demonii.com%3A1337","udp%3A%2F%2Ftracker.coppersurfer.tk%3A6969","udp%3A%2F%2Fexodus.desync.com%3A6969"],"infoHash":"a99a06de1d960c386f961f5f942975e33e59714e","infoHashBuffer":{"type":"Buffer","data":[169,154,6,222,29,150,12,56,111,150,31,95,148,41,117,227,62,89,113,78]},"announce":[],"urlList":[]}}